<?xml version="1.0" encoding="UTF-8" standalone="no"?>
<!-- Created with Inkscape (http://www.inkscape.org/) -->

<svg
   width="12.699992mm"
   height="12.700097mm"
   viewBox="0 0 12.699992 12.700097"
   version="1.1"
   id="svg1"
   xml:space="preserve"
   xmlns="http://www.w3.org/2000/svg"
   xmlns:svg="http://www.w3.org/2000/svg"><defs
     id="defs1" /><g
     id="layer1"
     transform="translate(-97.111727,-131.56172)"><g
       id="g1"><path
         d="m 109.37286,136.8046 -0.53413,-0.26667 c -0.13259,-0.5183 -0.33731,-1.00642 -0.604,-1.45562 l 0.18899,-0.56749 c 0.0954,-0.28497 0.021,-0.6 -0.19198,-0.81193 l -0.56114,-0.56113 c -0.21267,-0.21358 -0.52779,-0.28797 -0.81192,-0.19198 l -0.56746,0.18898 c -0.44843,-0.26668 -0.93735,-0.47147 -1.45562,-0.60399 l -0.26667,-0.53417 c -0.13409,-0.26907 -0.40955,-0.43888 -0.71033,-0.43888 h -0.7937 c -0.30078,0 -0.57541,0.16978 -0.71033,0.43888 l -0.26667,0.53417 c -0.51827,0.13258 -1.00639,0.33731 -1.45559,0.60399 l -0.56749,-0.18898 c -0.284965,-0.096 -0.599215,-0.021 -0.811925,0.19198 l -0.56113,0.56113 c -0.21268,0.21268 -0.28647,0.52702 -0.19198,0.81193 l 0.18898,0.56749 c -0.26668,0.44843 -0.47144,0.93732 -0.60399,1.45562 l -0.53414,0.26667 c -0.26907,0.13409 -0.43891,0.40952 -0.43891,0.71033 v 0.79367 c 0,0.30081 0.16978,0.57541 0.43891,0.71033 l 0.53414,0.26667 c 0.13258,0.5183 0.33731,1.00642 0.60399,1.45562 l -0.18898,0.56749 c -0.0951,0.28497 -0.021,0.6 0.19198,0.81192 l 0.56113,0.56114 c 0.15089,0.15149 0.35397,0.23248 0.56113,0.23248 0.084,0 0.16828,-0.012 0.250765,-0.0405 l 0.56749,-0.18899 c 0.44843,0.26668 0.93732,0.47147 1.45558,0.604 l 0.26668,0.53416 c 0.13409,0.26908 0.40955,0.43889 0.71033,0.43889 h 0.7937 c 0.30078,0 0.57541,-0.16978 0.71033,-0.43889 l 0.26667,-0.53416 c 0.51827,-0.13259 1.00638,-0.33732 1.45562,-0.604 l 0.56746,0.18899 c 0.0825,0.027 0.16678,0.0405 0.25077,0.0405 0.20728,0 0.41033,-0.0816 0.56112,-0.23248 l 0.56114,-0.56114 c 0.21268,-0.21267 0.28647,-0.52701 0.19198,-0.81192 l -0.18899,-0.56749 c 0.26669,-0.44843 0.47144,-0.93732 0.604,-1.45562 l 0.53413,-0.26667 c 0.26908,-0.13409 0.43892,-0.40952 0.43892,-0.71033 v -0.79367 c 0,-0.30081 -0.16978,-0.57541 -0.43892,-0.71033 z m -5.9105,5.07556 c -2.19132,0 -3.968375,-1.77707 -3.968375,-3.9684 0,-2.19132 1.777055,-3.96839 3.968375,-3.96839 2.19136,0 3.96839,1.77707 3.96839,3.96839 0,2.19133 -1.77703,3.9684 -3.96839,3.9684 z"
         stroke-width="0"
         fill="#ffffff"
         id="path1" /><g
         stroke-linejoin="round"
         fill="#ffffff"
         stroke-linecap="round"
         class="nc-icon-wrapper"
         id="g6"
         transform="matrix(0.15033172,0,0,0.15033172,99.853765,134.21926)"><path
           data-cap="butt"
           data-color="color-2"
           d="m 37.989,31.844 a 2.749,2.749 0 0 0 3.981,-0.1 v 0 A 2.749,2.749 0 0 0 41.903,27.983 L 31.887,17.71"
           fill="none"
           stroke="#ffffff"
           stroke-miterlimit="10"
           stroke-width="2"
           id="path1-4" /><path
           data-color="color-2"
           d="m 27.994,37.885 1.294,1.294 a 2.824,2.824 0 0 1 0,3.994 v 0 A 2.813,2.813 0 0 1 28,43.91"
           fill="none"
           stroke="#ffffff"
           stroke-linecap="round"
           stroke-miterlimit="10"
           stroke-width="2"
           id="path2" /><path
           data-color="color-2"
           d="m 36.011,29.866 2.757,2.758 a 2.843,2.843 0 0 1 0,4.022 v 0 a 2.843,2.843 0 0 1 -4.022,0 L 31.99,33.889"
           fill="none"
           stroke="#ffffff"
           stroke-linecap="round"
           stroke-miterlimit="10"
           stroke-width="2"
           id="path3" /><path
           data-color="color-2"
           d="m 34.2,36.1 a 2.824,2.824 0 0 1 0,3.994 v 0 a 2.826,2.826 0 0 1 -3.994,0"
           fill="none"
           stroke="#ffffff"
           stroke-linecap="round"
           stroke-miterlimit="10"
           stroke-width="2"
           id="path4" /><rect
           x="7.9770002"
           y="30.771"
           width="6.743"
           height="5.6880002"
           rx="2.8440001"
           ry="2.8440001"
           transform="rotate(-45,11.349705,33.614798)"
           fill="none"
           stroke="#ffffff"
           stroke-linecap="round"
           stroke-miterlimit="10"
           stroke-width="2"
           id="rect4" /><rect
           x="16.892"
           y="38.160999"
           width="6.1869998"
           height="5.6479998"
           rx="2.8239999"
           ry="2.8239999"
           transform="rotate(-45,19.984943,40.985966)"
           fill="none"
           stroke="#ffffff"
           stroke-linecap="round"
           stroke-miterlimit="10"
           stroke-width="2"
           id="rect5" /><path
           d="m 9.7,31.243 -0.42,0.42 a 2.749,2.749 0 0 1 -3.981,-0.1 v 0 A 2.75,2.75 0 0 1 5.364,27.8 l 0.42,-0.43 a 2.754,2.754 0 0 1 3.87,-0.066 v 0 A 2.753,2.753 0 0 1 9.7,31.243 Z"
           fill="none"
           stroke="#ffffff"
           stroke-linecap="round"
           stroke-miterlimit="10"
           stroke-width="2"
           id="path5" /><path
           d="M 42,22 V 18.625 L 45,15.573 34.558,5.131 32.69,7 H 28 A 8.868,8.868 0 0 0 21.765,9.56 L 15.1,16.491 a 2.464,2.464 0 0 0 3.15,3.754 l 7.1,-4.575 a 6.45,6.45 0 0 0 9.763,-0.1"
           fill="none"
           stroke="#ffffff"
           stroke-linecap="round"
           stroke-miterlimit="10"
           stroke-width="2"
           id="path6" /><polyline
           data-color="color-2"
           points="6 22 6 18.625 3 15.573 13.442 5.131 15.31 7 19 7"
           fill="none"
           stroke="#ffffff"
           stroke-linecap="round"
           stroke-miterlimit="10"
           stroke-width="2"
           id="polyline6" /><rect
           x="12.667"
           y="34.518002"
           width="5.947"
           height="5.6479998"
           rx="2.8239999"
           ry="2.8239999"
           transform="rotate(-45,15.640728,37.342398)"
           fill="none"
           stroke="#ffffff"
           stroke-linecap="round"
           stroke-miterlimit="10"
           stroke-width="2"
           id="rect6" /></g></g></g></svg>
